<svg width="12px" height="11px" viewBox="0 0 626 526" version="1.1" xmlns="http://www.w3.org/2000/svg">
<g id="#ffffffff">
<path fill="#969696" opacity="1.00" d=" M 511.49 6.77 C 517.80 3.24 524.75 0.29 532.10 0.32 C 539.55 -0.06 546.83 2.47 553.27 6.03 C 560.97 11.39 567.13 18.55 573.80 25.07 C 577.21 28.39 580.63 31.72 583.91 35.19 C 586.13 37.24 588.27 39.38 590.32 41.61 C 593.59 44.71 596.77 47.89 599.91 51.13 C 603.64 54.72 607.21 58.47 610.90 62.10 C 614.16 65.08 616.86 68.61 619.53 72.10 C 622.49 76.27 623.08 81.60 626.00 85.76 L 626.00 100.44 C 624.51 101.64 624.11 103.56 623.47 105.25 C 622.36 108.64 620.70 111.81 618.89 114.87 C 608.23 126.82 596.39 137.67 585.23 149.14 C 463.52 270.82 341.83 392.51 220.12 514.19 C 210.19 524.37 194.19 528.71 180.74 523.55 C 173.15 521.33 167.05 516.03 161.65 510.47 C 149.50 498.25 137.19 486.18 125.15 473.86 C 91.00 439.99 57.12 405.84 23.05 371.89 C 17.04 365.64 10.23 359.98 5.64 352.53 C 3.21 348.68 2.72 343.90 0.00 340.23 L 0.00 325.56 C 2.70 323.01 2.60 318.79 4.59 315.73 C 7.70 309.21 13.32 304.42 18.27 299.33 C 34.38 283.33 50.31 267.16 66.49 251.23 C 76.19 241.60 91.20 238.14 104.21 242.18 C 111.08 244.47 117.25 248.59 122.14 253.93 C 145.59 277.34 168.96 300.86 192.49 324.19 C 193.27 323.74 194.04 323.26 194.79 322.75 C 205.58 311.91 216.43 301.07 227.26 290.26 C 230.49 286.86 233.99 283.74 237.15 280.27 C 239.00 278.61 241.00 277.04 242.17 274.78 C 242.44 274.69 242.98 274.49 243.26 274.39 C 248.47 268.82 254.11 263.65 259.29 258.05 C 259.37 257.99 259.51 257.88 259.58 257.82 C 280.11 237.60 300.37 217.05 320.80 196.73 C 330.80 186.77 340.66 176.68 350.77 166.84 C 353.02 164.09 355.98 162.02 358.15 159.20 C 360.12 157.77 361.82 155.99 363.12 153.93 C 363.57 153.67 364.47 153.15 364.92 152.90 C 372.58 144.28 381.30 136.71 389.12 128.24 C 395.81 121.88 402.22 115.23 408.79 108.74 C 412.16 105.17 415.87 101.92 419.10 98.22 C 443.90 74.07 467.93 49.03 492.83 24.97 C 498.62 18.51 504.95 12.48 511.49 6.77 Z" />
</g>
</svg>