<svg width="9px" height="8px" viewBox="0 0 90 80" version="1.1" xmlns="http://www.w3.org/2000/svg">
<g id="#fab52aff">
<path fill="#fab52a" opacity="1.00" d=" M 71.34 3.38 C 72.84 1.78 74.58 -0.08 76.99 0.10 C 80.09 0.35 81.79 3.26 83.82 5.23 C 85.96 7.75 88.90 9.79 90.00 13.03 L 90.00 15.36 C 89.17 18.15 86.77 19.95 84.90 22.02 C 67.25 40.69 49.63 59.37 31.97 78.02 C 30.96 79.26 29.47 79.87 27.91 80.00 L 27.34 80.00 C 25.74 79.78 24.39 78.90 23.34 77.70 C 17.49 71.54 11.63 65.38 5.83 59.18 C 3.73 56.87 1.18 54.85 0.00 51.87 L 0.00 49.76 C 1.81 45.33 6.00 42.56 8.96 38.95 C 10.81 36.48 14.68 35.78 16.97 38.05 C 20.70 41.77 24.22 45.69 27.84 49.52 C 42.23 34.03 56.87 18.79 71.34 3.38 Z" />
</g>
</svg>