<svg width="9px" height="5px" viewBox="0 0 512 228" version="1.1" xmlns="http://www.w3.org/2000/svg">
<g id="#f4f4f4ff">
<path fill="#848484" opacity="1.00" d=" M 380.68 4.53 C 382.69 1.53 386.51 -0.00 390.06 0.31 C 394.01 0.80 396.72 4.00 399.53 6.49 C 435.63 39.43 471.76 72.33 507.87 105.26 C 510.12 107.23 511.69 109.91 512.00 112.92 L 512.00 113.20 C 511.75 116.49 510.05 119.45 507.57 121.57 C 470.50 155.83 433.43 190.10 396.37 224.37 C 393.72 227.00 389.73 228.64 386.06 227.25 C 381.98 226.15 379.06 222.20 379.28 217.97 C 379.21 195.96 379.27 173.95 379.25 151.94 C 256.47 151.93 133.70 151.95 10.92 151.93 C 5.33 152.56 -0.09 148.25 0.00 142.46 L 0.00 85.56 C 0.26 82.87 1.09 80.03 3.32 78.31 C 6.53 75.54 11.06 76.14 14.99 76.04 C 136.41 76.08 257.83 76.05 379.25 76.06 C 379.24 54.69 379.27 33.33 379.23 11.96 C 379.27 9.44 379.23 6.72 380.68 4.53 Z" />
</g>
</svg>