<svg width="11px" height="15px" viewBox="0 0 234 305" version="1.1" xmlns="http://www.w3.org/2000/svg">
<g id="#616c7fff">
<path fill="#616c7f" opacity="1.00" d=" M 36.16 6.19 C 54.72 -1.23 75.78 1.40 93.88 8.89 C 100.88 11.34 103.45 19.28 104.37 25.96 C 106.13 45.24 101.94 64.56 95.83 82.75 C 94.99 85.57 93.47 88.38 90.82 89.85 C 82.89 93.65 73.34 92.99 65.87 97.87 C 62.06 100.22 59.94 104.78 61.05 109.19 C 60.81 121.07 63.03 132.83 66.89 144.04 C 74.37 164.94 87.28 183.52 102.57 199.47 C 108.49 205.56 114.80 211.29 121.63 216.36 C 124.21 218.46 127.84 217.74 130.75 216.78 C 139.26 213.52 146.76 208.15 153.84 202.51 C 161.06 202.34 167.65 205.84 174.03 208.80 C 188.55 216.39 202.22 225.72 214.31 236.80 C 216.97 239.13 219.65 241.49 221.80 244.32 C 222.15 244.67 222.84 245.36 223.18 245.71 C 227.84 251.45 233.83 257.83 232.46 265.88 C 230.94 274.89 223.79 281.57 216.75 286.74 C 208.31 292.83 198.81 297.34 188.99 300.69 C 183.02 302.36 176.91 304.31 170.63 303.60 C 151.30 301.16 133.04 293.02 117.28 281.71 C 93.90 265.02 74.91 242.99 58.27 219.76 C 40.30 193.91 23.57 166.73 13.23 136.84 C 12.75 135.60 12.30 134.36 11.80 133.13 C 3.89 109.11 -0.50 83.42 3.09 58.21 C 4.97 44.34 8.86 30.32 16.77 18.62 C 22.15 13.07 28.97 8.97 36.16 6.19 Z" />
</g>
</svg>