<svg width="10px" height="14px" viewBox="0 0 100 140" version="1.1" xmlns="http://www.w3.org/2000/svg">
<g id="#616c7fff">
<path fill="#616c7f" opacity="1.00" d=" M 46.66 0.00 L 53.56 0.00 C 60.24 1.17 67.01 2.60 72.94 6.03 C 93.24 16.84 104.42 42.33 98.24 64.54 C 95.41 74.83 90.87 84.55 85.87 93.94 C 78.83 106.81 70.82 119.20 61.38 130.45 C 58.25 133.96 55.13 137.68 50.96 140.00 L 49.26 140.00 C 44.84 137.52 41.56 133.57 38.28 129.80 C 26.58 115.53 16.74 99.73 8.89 83.04 C 3.64 71.20 -1.61 58.27 0.77 45.08 C 2.92 28.47 13.36 13.01 28.38 5.44 C 34.03 2.36 40.40 1.14 46.66 0.00 M 42.40 18.60 C 33.83 20.58 26.44 26.47 21.94 33.94 C 16.95 41.99 15.74 52.04 17.79 61.21 C 19.98 70.25 25.78 78.44 33.85 83.15 C 41.12 87.64 50.21 88.52 58.43 86.54 C 68.74 83.74 77.28 75.63 81.01 65.66 C 86.36 52.06 82.57 35.31 71.42 25.72 C 63.66 18.90 52.45 15.75 42.40 18.60 Z" />
</g>
</svg>