<svg width="8px" height="10px" viewBox="0 0 72 92" version="1.1" xmlns="http://www.w3.org/2000/svg">
<g id="#232935ff">
<path fill="#232935" opacity="1.00" d=" M 31.33 0.00 L 35.68 0.00 C 49.41 1.53 62.97 11.07 65.85 25.07 C 69.73 36.66 64.47 48.21 58.43 57.91 C 62.83 65.55 67.79 72.86 72.00 80.60 L 72.00 85.47 C 69.93 87.77 67.73 89.95 65.40 92.00 L 60.94 92.00 C 52.29 85.91 48.65 75.26 42.92 66.73 C 34.70 66.34 25.55 68.36 18.09 63.89 C 8.32 59.43 2.81 49.47 0.00 39.57 L 0.00 28.46 C 1.29 23.66 3.25 19.02 5.86 14.80 C 11.21 5.91 21.51 1.62 31.33 0.00 M 30.43 14.42 C 25.84 14.79 22.01 17.76 18.68 20.67 C 11.56 28.96 12.35 43.91 22.12 49.82 C 31.73 58.07 48.17 52.88 52.06 41.01 C 58.42 27.80 44.53 11.05 30.43 14.42 Z" />
</g>
</svg>