<svg width="11px" height="19px" viewBox="0 0 250 456" version="1.1" xmlns="http://www.w3.org/2000/svg">
<g id="#000000ff">
<path fill="#000000" opacity="1.00" d=" M 21.41 0.00 L 21.41 0.00 C 96.89 75.38 172.25 150.89 247.74 226.26 C 248.12 226.70 248.88 227.57 249.26 228.01 C 204.59 273.08 159.53 317.79 114.71 362.73 C 83.71 393.84 52.46 424.75 21.61 456.00 L 21.31 456.00 C 16.69 450.34 10.94 445.47 5.89 440.11 C 3.84 438.40 2.38 435.91 0.00 434.67 L 0.00 434.41 C 1.24 433.95 1.99 432.78 2.86 431.87 C 70.78 363.89 138.79 295.99 206.70 227.99 C 138.75 160.01 70.77 92.06 2.81 24.10 C 1.91 23.26 0.96 22.49 0.00 21.72 L 0.00 21.28 C 1.24 20.89 2.04 19.79 2.92 18.90 C 8.98 12.51 15.62 6.61 21.41 0.00 Z" />
</g>
</svg>